<svg width="32" height="32" viewBox="0 0 32 32" fill="none" xmlns="http://www.w3.org/2000/svg">
<path d="M10.9167 5.05273C7.46541 5.05273 4.66666 7.85148 4.66666 11.3027V21.3027C4.66666 24.754 7.46541 27.5527 10.9167 27.5527H20.9167C24.3679 27.5527 27.1667 24.754 27.1667 21.3027V11.3027C27.1667 7.85148 24.3679 5.05273 20.9167 5.05273H10.9167ZM23.4167 7.55273C24.1067 7.55273 24.6667 8.11273 24.6667 8.80273C24.6667 9.49273 24.1067 10.0527 23.4167 10.0527C22.7267 10.0527 22.1667 9.49273 22.1667 8.80273C22.1667 8.11273 22.7267 7.55273 23.4167 7.55273ZM15.9167 10.0527C19.3679 10.0527 22.1667 12.8515 22.1667 16.3027C22.1667 19.754 19.3679 22.5527 15.9167 22.5527C12.4654 22.5527 9.66666 19.754 9.66666 16.3027C9.66666 12.8515 12.4654 10.0527 15.9167 10.0527ZM15.9167 12.5527C14.9221 12.5527 13.9683 12.9478 13.265 13.6511C12.5617 14.3543 12.1667 15.3082 12.1667 16.3027C12.1667 17.2973 12.5617 18.2511 13.265 18.9544C13.9683 19.6576 14.9221 20.0527 15.9167 20.0527C16.9112 20.0527 17.865 19.6576 18.5683 18.9544C19.2716 18.2511 19.6667 17.2973 19.6667 16.3027C19.6667 15.3082 19.2716 14.3543 18.5683 13.6511C17.865 12.9478 16.9112 12.5527 15.9167 12.5527Z" fill="#1E1E1C"/>
</svg>
