<svg width="32" height="32" viewBox="0 0 32 32" fill="none" xmlns="http://www.w3.org/2000/svg">
<path d="M24.6666 5.05273H7.16663C5.78538 5.05273 4.66663 6.17148 4.66663 7.55273V25.0527C4.66663 26.434 5.78538 27.5527 7.16663 27.5527H24.6666C26.0479 27.5527 27.1666 26.434 27.1666 25.0527V7.55273C27.1666 6.17148 26.0479 5.05273 24.6666 5.05273ZM12.1666 22.5527H9.01288V13.8027H12.1666V22.5527ZM10.5341 12.199C9.57038 12.199 8.92663 11.5565 8.92663 10.699C8.92663 9.84148 9.56913 9.19898 10.6404 9.19898C11.6041 9.19898 12.2479 9.84148 12.2479 10.699C12.2479 11.5565 11.6054 12.199 10.5341 12.199ZM23.4166 22.5527H20.3641V17.7702C20.3641 16.4477 19.5504 16.1427 19.2454 16.1427C18.9404 16.1427 17.9229 16.3465 17.9229 17.7702C17.9229 17.974 17.9229 22.5527 17.9229 22.5527H14.7691V13.8027H17.9229V15.024C18.3291 14.3115 19.1429 13.8027 20.6691 13.8027C22.1954 13.8027 23.4166 15.024 23.4166 17.7702V22.5527Z" fill="#1E1E1C"/>
</svg>
