<svg width="32" height="32" viewBox="0 0 32 32" fill="none" xmlns="http://www.w3.org/2000/svg">
<path d="M28.1441 8.78523C27.8566 7.71023 27.0091 6.86273 25.9341 6.57523C23.9841 6.05273 16.1666 6.05273 16.1666 6.05273C16.1666 6.05273 8.34913 6.05273 6.39913 6.57523C5.32413 6.86273 4.47663 7.71023 4.18913 8.78523C3.66663 10.7352 3.66663 16.0527 3.66663 16.0527C3.66663 16.0527 3.66663 21.3702 4.18913 23.3202C4.47663 24.3952 5.32413 25.2427 6.39913 25.5302C8.34913 26.0527 16.1666 26.0527 16.1666 26.0527C16.1666 26.0527 23.9841 26.0527 25.9341 25.5302C27.0104 25.2427 27.8566 24.3952 28.1441 23.3202C28.6666 21.3702 28.6666 16.0527 28.6666 16.0527C28.6666 16.0527 28.6666 10.7352 28.1441 8.78523ZM13.6666 20.3827V11.7227L21.1666 16.0527L13.6666 20.3827Z" fill="#1E1E1C"/>
</svg>
