<?xml version="1.0" encoding="UTF-8"?><svg id="Livello_1" xmlns="http://www.w3.org/2000/svg" viewBox="0 0 391.53 119.62"><defs><style>.cls-1{fill:#ea5c0c;}.cls-2{fill:#1e1e1c;}</style></defs><g><path class="cls-2" d="m128.45,33.65V6.79h10.34c8.35,0,12.53,4.48,12.53,13.44s-4.18,13.42-12.53,13.42h-10.34Zm10.34-5.35c4.76-.01,7.15-2.7,7.16-8.07-.01-5.37-2.4-8.05-7.16-8.05h-4.97v16.12h4.97Z"/><rect class="cls-2" x="155.08" y="6.79" width="5.35" height="26.86"/><polygon class="cls-2" points="164.62 33.65 164.62 6.81 166.41 6.81 183.23 23.63 183.23 6.81 188.6 6.81 188.6 33.65 186.63 33.65 169.99 17.01 169.99 33.65 164.62 33.65"/><path class="cls-2" d="m190.54,33.65l10.74-26.84h5.37l10.72,26.83-5.71.02-1.61-4.12h-12.17l-1.61,4.12h-5.73Zm13.57-19.69l-4.08,10.2h8.05l-3.97-10.2Z"/><polygon class="cls-2" points="219.24 33.65 219.24 6.81 221.03 6.81 232.66 20.05 244.31 6.81 246.1 6.81 246.1 33.65 240.73 33.65 240.71 18.08 232.66 27.03 224.61 18.08 224.61 33.65 219.24 33.65"/><rect class="cls-2" x="250.25" y="6.79" width="5.35" height="26.86"/><path class="cls-2" d="m262.25,29.8c-2.57-2.56-3.86-5.77-3.86-9.62.01-3.77,1.3-6.94,3.87-9.51,2.57-2.57,5.74-3.86,9.54-3.86s7.12,1.19,9.86,3.58l-3.58,3.92c-1.83-1.43-3.92-2.15-6.28-2.15-2.41.01-4.35.76-5.82,2.25-1.47,1.49-2.21,3.4-2.21,5.73.01,2.49.76,4.47,2.24,5.94,1.48,1.47,3.42,2.2,5.83,2.2s4.49-.71,6.25-2.13l3.58,3.92c-2.73,2.39-6.02,3.58-9.86,3.58-3.79-.01-6.98-1.3-9.55-3.86"/><polygon class="cls-2" points="284.43 33.65 284.43 6.81 289.8 6.81 289.8 17.55 302.31 17.55 302.31 6.79 307.67 6.79 307.67 33.64 302.31 33.65 302.31 22.56 289.8 22.56 289.8 33.65 284.43 33.65"/><polygon class="cls-2" points="312.02 33.65 312.02 6.83 331.74 6.81 331.74 11.82 317.38 11.82 317.38 17.55 328.14 17.55 328.14 22.54 317.38 22.54 317.38 28.64 331.7 28.64 331.7 33.65 312.02 33.65"/></g><g><polygon class="cls-2" points="132.18 45.97 139.8 65.64 147.57 45.97 153.3 45.97 142.58 72.82 137.21 72.82 126.45 45.97 132.18 45.97"/><polygon class="cls-2" points="155.33 72.82 155.33 45.99 175.05 45.97 175.05 50.98 160.7 50.98 160.7 56.71 171.46 56.71 171.46 61.7 160.7 61.7 160.7 67.81 175.02 67.81 175.02 72.82 155.33 72.82"/><path class="cls-2" d="m194.68,61.11l6.69,11.7h-6.16l-6.42-11.1h-4.9v11.1h-5.37v-26.84h11.7c6.26,0,9.4,2.58,9.4,7.73,0,3.88-1.65,6.35-4.94,7.41m-10.79-4.4h7.52c2.16-.04,3.27-1.02,3.33-2.95-.06-1.77-1.15-2.68-3.28-2.76h-7.57v5.71Z"/><polygon class="cls-2" points="224.27 45.97 224.27 50.98 215.33 50.98 215.33 72.82 209.96 72.82 209.96 50.98 201.01 50.98 201.01 45.97 224.27 45.97"/><rect class="cls-2" x="226.13" y="45.95" width="5.35" height="26.86"/><path class="cls-2" d="m238.12,68.96c-2.57-2.56-3.86-5.77-3.86-9.62.01-3.77,1.3-6.94,3.87-9.51,2.57-2.57,5.74-3.86,9.54-3.86s7.12,1.19,9.86,3.58l-3.58,3.92c-1.83-1.43-3.92-2.15-6.28-2.15-2.41.01-4.35.76-5.82,2.25-1.47,1.49-2.21,3.4-2.21,5.73.01,2.49.76,4.47,2.24,5.94,1.48,1.47,3.42,2.2,5.83,2.2s4.49-.71,6.25-2.13l3.58,3.92c-2.73,2.39-6.02,3.58-9.86,3.58-3.79-.01-6.98-1.3-9.55-3.86"/><path class="cls-2" d="m258.91,72.82l10.74-26.84h5.37l10.72,26.83-5.71.02-1.61-4.12h-12.17l-1.61,4.12h-5.73Zm13.57-19.69l-4.08,10.2h8.05l-3.97-10.2Z"/><polygon class="cls-2" points="293.01 45.97 293.01 67.81 307.33 67.81 307.33 72.82 287.64 72.82 287.64 45.97 293.01 45.97"/><rect class="cls-2" x="309.37" y="45.95" width="5.35" height="26.86"/></g><path class="cls-2" d="m108.76,112.83H7.97V12.04l100.79,100.79Zm-95.75-5.04h83.59L13.01,24.2v83.59Z"/><path class="cls-1" d="m114.01,107.58L13.22,6.79h100.79v100.79ZM25.38,11.83l83.59,83.59V11.83H25.38Z"/><g><path class="cls-2" d="m128.81,112.83v-26.82h18.86v5.01h-13.5v5.72h9.96v4.99h-9.96v11.1h-5.36Z"/><path class="cls-2" d="m154.05,108.98c-2.56-2.57-3.84-5.75-3.84-9.56s1.28-7,3.84-9.57c2.56-2.56,5.75-3.84,9.57-3.84s7,1.28,9.57,3.84c2.56,2.56,3.84,5.75,3.84,9.57s-1.28,7-3.84,9.57c-2.56,2.56-5.75,3.84-9.57,3.84s-7-1.28-9.57-3.85Zm9.58-1.15c2.37,0,4.3-.8,5.79-2.41,1.49-1.61,2.24-3.61,2.24-5.99s-.75-4.38-2.24-5.99c-1.49-1.61-3.43-2.41-5.83-2.41s-4.3.8-5.79,2.41c-1.49,1.61-2.24,3.61-2.24,5.99s.74,4.38,2.24,5.99c1.49,1.61,3.43,2.41,5.83,2.41Z"/><path class="cls-2" d="m197.16,101.14l6.69,11.69h-6.15l-6.42-11.09h-4.9v11.09h-5.36v-26.82h11.69c6.26,0,9.39,2.57,9.39,7.72,0,3.87-1.64,6.34-4.94,7.4Zm-10.78-4.4h7.51c2.16-.04,3.27-1.02,3.33-2.95-.06-1.76-1.15-2.68-3.27-2.75h-7.56v5.7Z"/><path class="cls-2" d="m206.64,112.83v-26.82h1.79l11.62,13.23,11.64-13.23h1.79v26.82h-5.36l-.02-15.56-8.05,8.94-8.05-8.94v15.56h-5.36Z"/><path class="cls-2" d="m237.41,112.83l10.73-26.82h5.36l10.71,26.8-5.7.02-1.61-4.11h-12.16l-1.61,4.11h-5.72Zm13.55-19.67l-4.08,10.19h8.05l-3.97-10.19Z"/><path class="cls-2" d="m289.25,112.83h-21.48l.02-1.79,12.5-20.03h-12.5l-.02-5.01h21.48v1.97l-12.55,19.85h12.55v5.01Z"/><path class="cls-2" d="m294.6,85.99h5.35v26.84h-5.35v-26.84Z"/><path class="cls-2" d="m307.81,108.98c-2.56-2.57-3.84-5.75-3.84-9.56s1.28-7,3.84-9.57c2.56-2.56,5.75-3.84,9.57-3.84s7,1.28,9.57,3.84c2.56,2.56,3.84,5.75,3.84,9.57s-1.28,7-3.84,9.57c-2.56,2.56-5.75,3.84-9.57,3.84s-7-1.28-9.57-3.85Zm9.58-1.15c2.37,0,4.3-.8,5.79-2.41,1.49-1.61,2.24-3.61,2.24-5.99s-.74-4.38-2.24-5.99c-1.49-1.61-3.43-2.41-5.83-2.41s-4.3.8-5.79,2.41c-1.49,1.61-2.24,3.61-2.24,5.99s.75,4.38,2.24,5.99c1.49,1.61,3.43,2.41,5.83,2.41Z"/><path class="cls-2" d="m334.78,112.83v-26.82h1.79l16.81,16.81v-16.81h5.36v26.82h-1.97l-16.63-16.63v16.63h-5.36Z"/><path class="cls-2" d="m364.23,112.83v-26.8l19.7-.02v5.01h-14.34v5.72h10.75v4.99h-10.75v6.1h14.3v5.01h-19.67Z"/></g></svg>