<?xml version="1.0" standalone="no"?>
<!DOCTYPE svg PUBLIC "-//W3C//DTD SVG 20010904//EN"
 "http://www.w3.org/TR/2001/REC-SVG-20010904/DTD/svg10.dtd">
<svg version="1.0" xmlns="http://www.w3.org/2000/svg"
 width="640.000000pt" height="294.000000pt" viewBox="0 0 640.000000 294.000000"
 preserveAspectRatio="xMidYMid meet">

<g transform="translate(0.000000,294.000000) scale(0.100000,-0.100000)"
fill="#000000" stroke="none">
<path d="M844 2786 c-350 -67 -595 -288 -701 -633 -25 -81 -27 -101 -27 -268
0 -210 14 -277 89 -432 119 -245 331 -405 620 -470 96 -21 341 -21 462 1 128
23 254 60 341 101 l72 34 -2 431 -3 431 -305 0 -305 0 -3 -111 -3 -111 193 1
193 2 3 -245 2 -245 -63 -25 c-148 -59 -400 -80 -537 -44 -249 65 -436 260
-496 515 -25 103 -15 303 19 402 95 277 310 443 592 457 177 10 326 -33 454
-130 73 -55 60 -59 162 54 l70 78 -58 46 c-77 61 -199 119 -303 145 -111 27
-362 36 -466 16z"/>
<path d="M5200 2776 c-349 -81 -604 -320 -700 -657 -32 -112 -38 -297 -12
-419 40 -192 124 -343 270 -481 188 -178 406 -258 672 -246 416 19 763 317
845 726 24 115 16 324 -15 431 -87 300 -328 540 -635 631 -88 26 -339 35 -425
15z m332 -526 c-81 -223 -110 -290 -122 -288 -12 3 -16 20 -18 80 l-3 77 77
143 c138 259 155 288 163 283 5 -2 -39 -135 -97 -295z m-227 -379 c0 -8 -29
-32 -64 -53 l-64 -39 -239 -16 c-215 -14 -262 -13 -247 2 8 8 573 124 594 122
11 -1 20 -8 20 -16z m204 -65 c68 -35 70 -37 197 -217 150 -213 146 -207 142
-220 -3 -9 -402 406 -422 439 -7 11 -1 32 10 32 2 0 35 -16 73 -34z"/>
<path d="M1925 2733 c3 -16 68 -237 142 -493 75 -256 186 -636 247 -845 l111
-380 126 -3 127 -3 19 63 c10 35 104 354 208 710 105 356 193 648 196 648 3 0
100 -318 215 -707 l209 -708 127 -3 127 -3 17 58 c9 32 122 420 250 862 129
442 234 810 234 817 0 11 -25 14 -119 14 -105 0 -119 -2 -123 -17 -3 -10 -90
-325 -193 -700 -165 -594 -205 -727 -205 -671 0 7 -91 322 -202 700 l-202 688
-126 0 c-69 0 -130 -4 -136 -8 -6 -4 -103 -319 -215 -699 -177 -606 -219 -735
-219 -680 0 10 -308 1136 -365 1335 l-16 52 -120 0 -121 0 7 -27z"/>
<path d="M860 462 c-51 -51 -53 -164 -4 -222 20 -24 34 -30 64 -30 67 0 70 4
70 86 l0 74 -35 0 c-28 0 -35 -4 -35 -20 0 -11 7 -20 15 -20 11 0 15 -11 15
-40 0 -36 -3 -40 -24 -40 -36 0 -56 35 -56 100 0 34 6 64 16 78 16 23 53 29
70 12 8 -8 15 -6 24 5 11 13 10 18 -6 30 -32 24 -82 19 -114 -13z"/>
<path d="M1258 470 c-53 -41 -59 -173 -11 -231 19 -23 33 -29 63 -29 69 0 110
76 95 177 -13 87 -88 130 -147 83z m86 -42 c21 -30 21 -126 0 -156 -20 -29
-54 -25 -72 8 -16 31 -11 132 7 154 19 23 47 20 65 -6z"/>
<path d="M3211 469 c-30 -28 -41 -60 -41 -120 0 -89 34 -139 95 -139 63 0 95
47 95 140 0 66 -18 113 -49 130 -31 16 -76 12 -100 -11z m76 -27 c52 -33 36
-192 -20 -192 -31 0 -51 38 -51 99 0 72 34 116 71 93z"/>
<path d="M3687 479 c-66 -39 -65 -223 2 -259 27 -14 84 -13 105 3 14 10 16 25
14 77 l-3 65 -35 0 c-25 0 -36 -5 -38 -17 -2 -13 3 -18 17 -18 18 0 21 -6 21
-40 0 -38 -2 -40 -30 -40 -23 0 -33 7 -45 30 -18 35 -20 99 -3 135 14 30 52
43 74 24 13 -10 17 -10 25 2 13 21 11 27 -10 39 -25 13 -71 12 -94 -1z"/>
<path d="M4475 465 c-15 -14 -25 -36 -25 -53 0 -29 10 -42 74 -94 47 -39 17
-91 -36 -64 -22 12 -26 11 -36 -5 -10 -15 -8 -20 7 -29 34 -18 88 -12 111 12
28 30 27 84 -2 108 -13 11 -36 30 -52 43 -25 21 -27 26 -16 46 10 19 17 22 45
17 39 -8 57 17 25 34 -32 17 -70 11 -95 -15z"/>
<path d="M5177 462 c-49 -51 -50 -175 -2 -226 21 -23 32 -27 67 -24 35 2 46 9
65 37 43 63 27 202 -26 231 -36 19 -76 12 -104 -18z m80 -20 c33 -21 43 -114
18 -162 -34 -66 -89 -23 -89 69 0 72 34 116 71 93z"/>
<path d="M1067 348 l2 -133 56 -3 c50 -3 55 -1 55 18 0 16 -6 20 -35 20 l-35
0 0 115 c0 113 0 115 -22 115 -23 0 -23 -1 -21 -132z"/>
<path d="M1472 348 l3 -133 59 0 c49 1 61 4 77 24 25 30 24 73 -1 96 -17 16
-18 20 -5 38 8 12 15 33 15 48 0 41 -28 59 -94 59 l-57 0 3 -132z m102 80 c15
-25 -4 -53 -35 -53 -18 0 -24 6 -26 25 -1 14 0 31 3 38 5 18 44 11 58 -10z m1
-108 c15 -17 16 -24 7 -46 -10 -20 -18 -25 -40 -22 -21 2 -28 9 -30 31 -2 16
-1 35 2 43 8 20 40 17 61 -6z"/>
<path d="M1701 356 c-17 -69 -31 -130 -31 -136 0 -5 9 -10 20 -10 15 0 22 9
27 30 5 27 9 30 43 30 34 0 39 -3 45 -30 5 -23 12 -30 31 -30 22 0 24 3 17 28
-3 15 -18 74 -33 132 -26 103 -27 105 -57 108 l-30 3 -32 -125z m78 17 c15
-75 15 -72 -20 -71 -26 1 -30 4 -25 22 4 12 9 40 12 64 4 23 10 42 14 42 4 0
12 -26 19 -57z"/>
<path d="M1910 345 l0 -135 60 0 c53 0 60 2 60 19 0 16 -8 20 -37 23 l-38 3
-3 113 c-2 104 -4 112 -22 112 -19 0 -20 -7 -20 -135z"/>
<path d="M2140 478 c0 -2 11 -61 25 -133 14 -71 25 -130 25 -132 0 -2 11 -3
24 -3 29 0 31 6 47 109 7 45 15 81 19 81 4 0 12 -33 19 -72 20 -117 21 -118
46 -118 27 0 27 0 55 143 24 131 24 127 1 127 -16 0 -21 -12 -31 -72 -24 -142
-25 -143 -45 -30 -17 94 -20 102 -40 102 -28 0 -29 -3 -46 -112 -7 -48 -16
-85 -20 -83 -3 3 -12 47 -19 100 -13 89 -15 95 -37 95 -13 0 -23 -1 -23 -2z"/>
<path d="M2480 345 c0 -128 1 -135 20 -135 19 0 20 7 20 135 0 128 -1 135 -20
135 -19 0 -20 -7 -20 -135z"/>
<path d="M2600 345 c0 -128 1 -135 20 -135 19 0 20 7 20 92 0 50 3 88 7 84 4
-3 21 -43 38 -89 28 -72 35 -82 59 -85 l26 -3 0 135 c0 128 -1 136 -20 136
-18 0 -20 -8 -22 -92 l-3 -93 -35 93 c-32 86 -36 92 -62 92 l-28 0 0 -135z"/>
<path d="M2850 345 l0 -135 43 0 c56 0 88 18 109 60 33 64 16 175 -30 199 -12
6 -43 11 -71 11 l-51 0 0 -135z m84 95 c51 -19 56 -153 6 -180 -45 -24 -50
-16 -50 83 0 81 4 107 16 107 1 0 14 -4 28 -10z"/>
<path d="M3430 345 c0 -128 1 -135 20 -135 18 0 20 7 20 60 0 46 3 60 14 60 9
0 24 -24 37 -60 18 -50 26 -60 45 -60 l24 0 -21 52 c-11 29 -23 56 -26 61 -3
5 4 17 16 28 14 13 21 32 21 58 0 54 -23 71 -93 71 l-57 0 0 -135z m98 93 c29
-29 7 -78 -35 -78 -21 0 -23 5 -23 45 0 40 2 45 23 45 13 0 28 -5 35 -12z"/>
<path d="M3915 468 c-2 -7 -16 -60 -30 -118 -14 -58 -28 -113 -31 -122 -4 -13
0 -18 16 -18 14 0 24 9 31 30 10 26 16 30 49 30 35 0 39 -3 42 -27 2 -20 9
-29 26 -31 12 -2 22 2 22 8 0 6 -14 67 -31 135 -31 124 -32 125 -61 125 -16 0
-30 -6 -33 -12z m52 -105 c9 -48 8 -52 -11 -57 -42 -11 -43 -9 -25 74 13 60
22 56 36 -17z"/>
<path d="M4092 348 c3 -117 5 -133 21 -136 15 -3 17 7 17 94 0 54 4 94 8 89 5
-6 24 -49 42 -97 28 -76 36 -88 56 -88 l24 0 0 135 c0 131 -1 135 -21 135 -21
0 -21 -4 -17 -90 2 -49 2 -90 -1 -90 -3 0 -21 41 -40 90 -31 85 -35 90 -62 90
l-30 0 3 -132z"/>
<path d="M4340 345 c0 -128 1 -135 20 -135 19 0 20 7 20 135 0 128 -1 135 -20
135 -19 0 -20 -7 -20 -135z"/>
<path d="M4665 363 c-15 -65 -30 -126 -33 -136 -4 -15 0 -18 19 -15 18 2 25
10 27 31 3 24 7 27 43 27 36 0 40 -3 46 -30 4 -24 11 -30 30 -30 17 0 23 4 20
13 -3 7 -17 68 -33 135 l-28 122 -31 0 -31 0 -29 -117z m80 -15 c7 -44 6 -45
-19 -44 -30 1 -30 2 -21 64 12 82 26 75 40 -20z"/>
<path d="M4830 466 c0 -9 12 -16 28 -18 l27 -3 3 -117 c2 -110 4 -118 22 -118
19 0 20 7 20 120 l0 120 25 0 c16 0 25 6 25 15 0 12 -15 15 -75 15 -58 0 -75
-3 -75 -14z"/>
<path d="M5030 345 c0 -128 1 -135 20 -135 19 0 20 7 20 135 0 128 -1 135 -20
135 -19 0 -20 -7 -20 -135z"/>
<path d="M5400 346 c0 -128 1 -136 20 -136 18 0 20 8 22 93 l3 92 36 -90 c32
-78 40 -90 63 -93 l26 -3 0 135 c0 128 -1 136 -20 136 -17 0 -20 -8 -22 -92
l-3 -92 -35 89 c-32 80 -39 90 -63 93 l-27 3 0 -135z"/>
</g>
</svg>
