<?xml version="1.0" standalone="no"?>
<!DOCTYPE svg PUBLIC "-//W3C//DTD SVG 20010904//EN"
 "http://www.w3.org/TR/2001/REC-SVG-20010904/DTD/svg10.dtd">
<svg version="1.0" xmlns="http://www.w3.org/2000/svg"
 width="640.000000pt" height="294.000000pt" viewBox="0 0 640.000000 294.000000"
 preserveAspectRatio="xMidYMid meet">

<g transform="translate(0.000000,294.000000) scale(0.100000,-0.100000)"
fill="#000000" stroke="none">
<path d="M3068 2815 c-2 -2 -43 -6 -92 -9 -518 -40 -993 -227 -1271 -501 -194
-190 -284 -397 -271 -620 9 -161 52 -281 151 -420 58 -82 213 -228 310 -293
106 -71 314 -173 431 -212 l94 -32 0 -309 0 -309 790 0 790 0 2 307 3 307 105
38 c392 141 680 366 810 632 53 108 72 182 76 296 16 517 -509 950 -1323 1090
-72 13 -185 23 -288 26 -93 2 -203 6 -242 8 -40 1 -74 2 -75 1z m370 -150
c253 -16 599 -104 803 -205 329 -162 524 -358 594 -595 27 -91 24 -230 -7
-322 -37 -106 -102 -208 -198 -304 -293 -296 -830 -479 -1406 -479 -602 0
-1126 178 -1429 485 -94 95 -140 163 -181 265 -113 278 13 583 334 810 73 51
243 150 259 150 3 0 -5 -12 -16 -26 -22 -29 -27 -64 -12 -93 8 -15 -1 -23 -57
-56 -211 -120 -361 -285 -407 -449 -25 -88 -17 -230 19 -316 117 -286 505
-515 1026 -607 197 -35 566 -44 770 -19 431 53 773 188 986 389 267 252 284
547 46 799 -82 87 -151 140 -265 206 -188 108 -437 185 -732 228 -167 25 -530
25 -710 0 -131 -18 -399 -81 -470 -110 -46 -19 -45 -19 -45 -2 0 8 -14 26 -32
41 -24 20 -39 25 -60 21 -46 -9 -32 0 50 32 229 90 492 146 757 162 126 7 197
6 383 -5z m7 -146 c841 -73 1401 -512 1234 -965 -61 -165 -246 -338 -484 -450
-159 -75 -405 -149 -560 -169 -27 -3 -63 -8 -80 -10 -87 -13 -122 -16 -260
-22 -624 -25 -1247 195 -1481 523 -119 167 -129 368 -26 543 58 100 190 219
335 304 63 36 84 44 105 38 41 -11 75 2 97 37 17 27 35 37 130 68 291 95 651
133 990 103z m-740 -1858 c194 -34 332 -44 578 -39 245 5 406 25 595 71 l92
23 0 -288 0 -288 -755 0 -755 0 0 289 0 288 68 -18 c37 -10 117 -27 177 -38z"/>
<path d="M3584 2373 c-15 -21 -57 -68 -92 -105 -65 -67 -71 -88 -26 -88 l24 0
0 -184 c0 -198 6 -228 48 -263 24 -19 24 -21 7 -20 -15 2 -20 -4 -20 -23 0
-20 5 -25 25 -25 20 0 26 6 28 28 3 24 7 27 44 27 50 0 100 29 129 76 16 27
19 38 10 47 -8 8 -19 3 -41 -21 -24 -27 -33 -31 -49 -23 -10 6 -21 18 -25 27
-3 8 -6 92 -6 185 l0 169 55 0 c52 0 55 1 55 25 0 24 -3 25 -55 25 l-55 0 0
90 c0 104 -10 113 -56 53z"/>
<path d="M2675 2199 l-45 -42 0 37 0 36 -105 0 c-83 0 -105 -3 -105 -14 0 -8
11 -17 24 -20 33 -8 37 -32 35 -219 -1 -172 -6 -202 -38 -212 -12 -3 -21 -13
-21 -21 0 -11 26 -14 145 -14 119 0 145 3 145 14 0 8 -14 17 -31 21 -44 10
-51 39 -47 197 3 128 4 138 27 162 31 33 34 32 68 -3 36 -38 88 -45 117 -15
25 24 20 81 -9 109 -18 19 -35 25 -70 25 -39 0 -51 -5 -90 -41z"/>
<path d="M3014 2221 c-54 -24 -84 -64 -84 -110 0 -49 11 -63 56 -70 53 -9 84
11 84 53 0 17 -7 42 -16 54 -23 34 -3 52 56 52 66 0 85 -23 85 -102 l0 -61
-84 -28 c-156 -53 -201 -94 -201 -182 0 -50 30 -92 75 -103 48 -12 122 2 167
31 30 20 43 24 46 15 3 -7 13 -21 24 -32 29 -29 118 -21 153 12 33 31 33 52 0
44 -32 -8 -34 2 -37 204 l-3 164 -32 28 c-18 16 -49 34 -70 39 -61 17 -172 13
-219 -8z m176 -311 c0 -73 -2 -81 -24 -95 -36 -24 -79 -16 -90 16 -16 48 1 97
46 129 63 46 68 42 68 -50z"/>
<path d="M3925 2227 c-94 -38 -131 -106 -89 -165 13 -19 23 -23 62 -20 39 3
49 8 62 31 14 25 13 30 -2 58 -30 52 -25 60 42 71 31 5 67 -12 78 -37 7 -14
12 -50 12 -79 l0 -52 -51 -13 c-29 -8 -87 -31 -129 -52 -63 -32 -81 -46 -95
-75 -23 -48 -15 -109 18 -141 44 -45 144 -43 213 3 32 22 38 23 46 10 5 -8 16
-22 25 -32 35 -35 178 3 178 47 0 8 -10 14 -25 14 l-25 0 -5 170 c-6 193 -14
220 -77 251 -47 23 -193 30 -238 11z m165 -309 c0 -60 -4 -76 -22 -95 -48 -51
-117 -11 -104 60 6 33 40 73 81 95 40 22 45 16 45 -60z"/>
<path d="M2120 2218 c0 -7 14 -21 30 -30 l30 -17 0 -186 c0 -172 -1 -186 -20
-205 -11 -11 -24 -20 -30 -20 -5 0 -10 -7 -10 -15 0 -13 21 -15 130 -15 104 0
130 3 130 14 0 7 -11 21 -25 30 l-25 16 0 220 0 220 -105 0 c-77 0 -105 -3
-105 -12z"/>
<path d="M1960 1708 c0 -6 3 -8 7 -5 3 4 12 2 20 -4 9 -8 13 -43 13 -130 0
-102 -2 -119 -17 -128 -14 -8 -1 -10 51 -11 58 0 67 2 54 13 -14 10 -17 35
-20 131 -3 115 -2 119 20 127 38 14 25 19 -53 19 -50 0 -75 -4 -75 -12z"/>
<path d="M4304 1701 c15 -16 17 -36 14 -132 -2 -63 -7 -121 -11 -129 -6 -13 1
-14 45 -11 39 2 47 6 35 13 -15 8 -17 28 -17 143 l0 135 -42 0 c-40 0 -41 -1
-24 -19z"/>
<path d="M2406 1659 c-24 -25 -35 -44 -28 -48 6 -3 12 -42 13 -86 1 -44 7 -86
12 -92 14 -19 62 -16 80 5 20 22 23 39 5 25 -39 -30 -43 -24 -40 63 3 76 5 83
25 87 l22 4 -22 2 c-18 1 -22 8 -25 41 l-3 39 -39 -40z"/>
<path d="M3397 1659 c-39 -43 -45 -54 -24 -46 9 3 11 -15 8 -79 -3 -92 5 -114
44 -114 27 0 74 35 62 46 -4 4 -14 -1 -21 -12 -12 -16 -15 -16 -19 -4 -14 42
-17 76 -11 115 5 34 11 45 28 48 16 3 14 5 -8 6 -28 1 -28 3 -23 41 3 22 4 40
3 40 -2 0 -19 -18 -39 -41z"/>
<path d="M2234 1615 c-22 -17 -38 -20 -29 -5 4 6 -12 10 -42 10 -37 -1 -44 -3
-30 -11 14 -8 17 -24 17 -89 0 -53 -4 -80 -12 -83 -7 -3 7 -6 32 -6 l45 -1 0
76 c0 63 3 79 18 88 14 9 20 8 27 -4 13 -20 13 -137 0 -145 -22 -13 -8 -20 34
-17 l43 4 -8 36 c-5 21 -9 60 -9 89 0 41 -4 54 -19 63 -27 14 -44 13 -67 -5z"/>
<path d="M2562 1618 c-13 -6 -21 -17 -18 -25 3 -7 0 -12 -6 -10 -18 4 -28 -54
-17 -95 11 -41 41 -68 77 -68 38 0 81 28 82 54 0 5 -9 1 -20 -9 -28 -25 -65
-13 -79 26 -6 18 -11 34 -11 35 0 2 25 4 55 4 52 0 55 1 55 25 0 14 -11 37
-25 50 -26 27 -56 31 -93 13z m68 -17 c0 -3 3 -16 6 -28 6 -21 3 -23 -31 -23
-36 0 -37 1 -30 27 3 15 11 31 17 34 12 8 38 1 38 -10z"/>
<path d="M2802 1608 c-19 -19 -22 -20 -22 -5 0 13 -9 17 -37 17 -29 0 -34 -3
-25 -12 15 -15 16 -154 2 -163 -23 -14 -7 -20 42 -16 29 2 47 6 41 8 -9 3 -13
27 -13 73 0 68 11 93 33 71 29 -29 73 3 47 34 -18 21 -42 19 -68 -7z"/>
<path d="M2994 1608 c-23 -18 -27 -19 -21 -5 5 14 0 17 -36 16 -23 0 -36 -3
-29 -6 15 -6 17 -173 2 -173 -5 0 -10 -3 -10 -8 0 -4 19 -6 43 -4 l42 4 -3 72
c-4 76 10 105 43 92 19 -7 22 -135 3 -154 -9 -9 -2 -12 32 -12 l45 0 -5 86
c-4 70 -9 88 -24 100 -28 20 -49 18 -82 -8z"/>
<path d="M3180 1618 c-31 -17 -35 -61 -6 -66 24 -5 39 18 24 36 -9 10 -8 16 2
22 22 14 55 -5 58 -33 3 -24 -3 -29 -51 -51 -41 -18 -55 -30 -59 -49 -10 -52
28 -72 88 -45 22 10 28 10 32 0 5 -15 41 -16 62 -1 11 8 12 12 3 16 -9 3 -13
27 -13 68 0 45 -5 69 -18 85 -21 26 -87 36 -122 18z m80 -122 c0 -32 -13 -46
-41 -46 -13 0 -11 54 3 68 22 22 38 13 38 -22z"/>
<path d="M3682 1623 c-6 -2 -10 -9 -7 -14 4 -5 0 -6 -8 -3 -14 5 -47 -49 -47
-79 0 -82 89 -134 155 -91 28 19 47 73 38 115 -11 54 -80 93 -131 72z m59 -20
c21 -25 19 -138 -3 -160 -17 -16 -19 -16 -35 0 -34 33 -20 177 17 177 4 0 14
-7 21 -17z m46 -65 c-3 -8 -6 -5 -6 6 -1 11 2 17 5 13 3 -3 4 -12 1 -19z"/>
<path d="M3942 1614 c-12 -8 -22 -10 -22 -5 0 6 -19 11 -42 10 -24 0 -37 -3
-30 -6 15 -6 17 -173 2 -173 -5 0 -10 -3 -10 -8 0 -4 21 -5 48 -3 36 3 42 6
27 12 -11 4 -15 8 -8 8 8 1 13 24 15 67 2 51 7 70 21 78 14 8 20 8 27 -4 13
-21 12 -134 -1 -147 -8 -8 1 -12 33 -14 l43 -4 -3 80 c-2 47 -10 89 -18 103
-17 26 -50 29 -82 6z m61 -34 c-3 -12 -8 -19 -11 -16 -5 6 5 36 12 36 2 0 2
-9 -1 -20z"/>
<path d="M4123 1618 c-40 -20 -42 -68 -3 -68 20 0 35 26 20 35 -16 10 -11 23
10 30 28 9 50 -11 50 -45 0 -23 -6 -29 -40 -39 -22 -7 -38 -16 -35 -21 3 -5 0
-12 -6 -16 -8 -4 -9 -3 -5 4 4 7 3 12 -3 12 -17 0 -28 -33 -22 -60 8 -29 47
-38 82 -20 15 9 24 9 32 1 15 -15 52 -14 66 3 9 11 9 15 -1 18 -8 3 -13 29
-14 73 -2 43 -8 73 -17 82 -19 19 -86 26 -114 11z m77 -117 c0 -31 -25 -65
-41 -56 -14 10 -10 52 7 69 23 24 34 19 34 -13z"/>
<path d="M3508 1613 c8 -3 12 -31 12 -88 0 -57 -4 -85 -12 -88 -7 -3 12 -5 42
-5 30 0 49 2 43 5 -9 3 -13 32 -13 94 l0 89 -42 -1 c-24 0 -37 -3 -30 -6z"/>
<path d="M2910 1345 c0 -16 16 -20 24 -6 3 5 -1 11 -9 15 -9 3 -15 0 -15 -9z"/>
<path d="M2328 1343 c7 -3 12 -24 12 -53 0 -29 -5 -50 -12 -53 -7 -3 3 -6 22
-6 23 -1 31 2 24 9 -6 6 -8 31 -4 60 l6 50 -30 -1 c-17 0 -25 -3 -18 -6z"/>
<path d="M2547 1330 c4 -16 1 -20 -17 -18 -28 4 -45 -21 -36 -55 6 -24 11 -27
47 -27 33 0 40 3 35 16 -3 9 -6 36 -6 60 0 31 -4 44 -14 44 -9 0 -12 -7 -9
-20z m-2 -60 c0 -27 -20 -38 -28 -15 -8 20 3 47 17 42 6 -2 11 -14 11 -27z"/>
<path d="M3045 1290 c0 -47 3 -60 15 -60 12 0 14 12 12 60 -5 81 -27 81 -27 0z"/>
<path d="M3138 1343 c7 -3 12 -24 12 -53 0 -29 -5 -50 -12 -53 -7 -3 2 -6 19
-6 31 -1 32 0 23 24 -5 14 -6 25 -1 25 5 0 16 -11 25 -25 9 -14 26 -25 37 -25
20 0 20 0 1 28 -15 20 -17 31 -9 43 21 32 1 49 -55 48 -29 0 -47 -3 -40 -6z
m72 -23 c0 -11 -7 -20 -15 -20 -8 0 -15 9 -15 20 0 11 7 20 15 20 8 0 15 -9
15 -20z"/>
<path d="M3598 1290 c-20 -45 -23 -60 -12 -60 8 0 11 6 8 15 -5 11 1 15 19 15
28 0 44 -15 25 -23 -7 -3 2 -6 21 -6 25 -1 31 2 24 12 -6 6 -18 33 -28 60 -10
26 -21 47 -24 47 -3 0 -18 -27 -33 -60z m32 0 c0 -5 -4 -10 -10 -10 -5 0 -10
5 -10 10 0 6 5 10 10 10 6 0 10 -4 10 -10z"/>
<path d="M2773 1328 c-6 -7 -8 -32 -5 -55 l4 -41 51 0 c30 -1 46 2 38 7 -20
13 -10 57 13 53 11 -2 16 2 14 9 -2 6 -17 13 -34 15 -29 3 -29 2 -26 -36 4
-35 2 -38 -16 -33 -22 5 -26 38 -9 61 6 8 5 12 -2 12 -7 0 -9 5 -6 10 9 15
-11 12 -22 -2z"/>
<path d="M2402 1310 c-4 -3 -7 -22 -7 -43 0 -29 4 -37 18 -37 15 0 18 6 15 32
-2 20 2 33 11 36 10 3 12 -4 9 -32 -3 -28 -1 -36 12 -36 13 0 15 8 11 43 -5
38 -9 42 -34 42 -15 1 -31 -2 -35 -5z"/>
<path d="M2594 1305 c3 -9 6 -30 6 -46 l0 -29 70 0 c57 0 72 3 77 17 4 10 -2
23 -17 35 -12 10 -20 21 -17 25 4 3 13 0 22 -7 9 -8 15 -8 15 -2 0 16 -18 24
-40 17 -26 -8 -26 -31 0 -47 11 -7 20 -16 20 -20 0 -13 -28 -9 -33 5 -4 9 -6
9 -6 -1 -2 -29 -21 2 -21 34 0 24 -5 34 -15 34 -11 0 -14 -7 -9 -25 3 -14 3
-33 -2 -42 -6 -14 -9 -8 -13 22 -4 28 -11 41 -25 43 -14 3 -17 0 -12 -13z"/>
<path d="M2905 1274 c0 -33 4 -44 15 -44 12 0 15 9 12 39 -6 56 -27 60 -27 5z"/>
<path d="M2961 1306 c-8 -9 -8 -16 -2 -20 5 -4 14 1 19 10 7 13 11 14 17 3 5
-7 4 -14 -2 -16 -24 -8 -46 -31 -39 -41 4 -7 23 -12 41 -12 33 0 34 1 29 33
-3 17 -7 38 -10 45 -5 16 -39 15 -53 -2z m39 -45 c0 -6 -4 -13 -10 -16 -5 -3
-10 1 -10 9 0 9 5 16 10 16 6 0 10 -4 10 -9z"/>
<path d="M3275 1296 c-21 -32 -6 -66 31 -66 31 0 48 36 29 65 -18 29 -41 30
-60 1z m45 -27 c0 -19 -5 -29 -15 -29 -15 0 -22 50 -9 63 12 12 24 -4 24 -34z"/>
<path d="M3358 1260 c3 -47 7 -59 23 -63 22 -6 25 3 7 21 -9 9 -6 12 15 12 31
0 49 32 37 65 -5 15 -17 20 -46 22 l-39 1 3 -58z m60 9 c-1 -12 -8 -24 -14
-26 -15 -5 -24 43 -11 56 15 15 29 -2 25 -30z"/>
<path d="M3471 1306 c-18 -22 -10 -70 13 -74 10 -2 23 1 28 6 7 7 4 10 -8 9
-14 -2 -20 6 -22 26 -3 26 12 39 20 16 2 -7 10 -10 17 -8 11 4 10 9 -3 22 -21
21 -30 21 -45 3z"/>
<path d="M3718 1309 c-21 -12 -24 -49 -6 -67 14 -14 44 -16 52 -3 3 5 -1 8
-10 7 -22 -1 -39 27 -30 50 7 18 8 18 21 1 9 -13 15 -15 20 -6 4 6 1 15 -6 20
-17 11 -20 11 -41 -2z"/>
<path d="M3798 1309 c-21 -12 -24 -49 -6 -67 14 -14 44 -16 52 -3 3 5 -1 8
-10 7 -22 -1 -39 27 -30 50 7 18 8 18 21 1 9 -13 15 -15 20 -6 4 6 1 15 -6 20
-17 11 -20 11 -41 -2z"/>
<path d="M3872 1308 c-13 -13 -15 -37 -6 -62 7 -19 49 -21 60 -4 5 8 2 9 -9 5
-17 -6 -30 6 -34 36 -2 10 3 17 12 17 8 0 15 -4 15 -10 0 -5 5 -10 10 -10 7 0
7 6 0 20 -12 23 -30 26 -48 8z"/>
<path d="M3943 1303 c-4 -10 2 -23 15 -34 27 -22 28 -33 2 -26 -11 3 -20 1
-20 -4 0 -5 11 -9 25 -9 35 0 44 28 17 51 -25 20 -29 34 -7 25 8 -3 15 -1 15
4 0 17 -40 11 -47 -7z"/>
<path d="M4023 1313 c-19 -7 -15 -31 7 -45 11 -7 20 -17 20 -22 0 -4 -9 -6
-20 -3 -11 3 -20 1 -20 -4 0 -5 11 -9 25 -9 36 0 44 28 15 52 -12 10 -20 21
-17 25 4 3 14 0 23 -8 15 -12 17 -12 12 1 -5 16 -25 22 -45 13z"/>
<path d="M2515 1143 c-5 -15 -4 -16 6 -5 7 6 19 12 26 12 18 0 18 -96 1 -103
-7 -3 -1 -6 14 -6 21 -1 27 4 26 17 -3 41 3 92 11 92 14 0 34 -58 29 -85 -4
-19 -1 -25 12 -25 13 0 16 7 12 30 -4 25 -1 30 17 30 11 0 21 5 21 10 0 6 -13
10 -29 10 -21 0 -32 6 -36 20 -5 16 -15 20 -55 20 -36 0 -49 -4 -55 -17z"/>
<path d="M2847 1140 c4 -16 0 -20 -20 -20 -20 0 -27 -6 -32 -30 -9 -40 0 -50
43 -50 l37 0 -3 60 c-3 41 -8 60 -17 60 -8 0 -11 -7 -8 -20z m-2 -60 c0 -13
-6 -25 -12 -27 -9 -3 -13 6 -13 27 0 21 4 30 13 28 6 -3 12 -15 12 -28z"/>
<path d="M3046 1125 c-9 -21 -16 -41 -16 -46 0 -4 -7 -14 -15 -23 -10 -10 -12
-17 -4 -21 6 -4 13 2 16 14 6 25 53 30 53 6 0 -10 10 -15 28 -15 15 0 22 3 15
8 -6 4 -19 27 -29 52 -24 64 -31 67 -48 25z m21 -41 c-9 -9 -28 6 -21 18 4 6
10 6 17 -1 6 -6 8 -13 4 -17z"/>
<path d="M3450 1150 c0 -5 7 -10 15 -10 8 0 15 5 15 10 0 6 -7 10 -15 10 -8 0
-15 -4 -15 -10z"/>
<path d="M3650 1150 c0 -5 7 -10 15 -10 8 0 15 5 15 10 0 6 -7 10 -15 10 -8 0
-15 -4 -15 -10z"/>
<path d="M3603 1138 c-5 -7 -8 -32 -5 -55 3 -36 8 -43 26 -43 14 0 17 3 8 8
-7 5 -11 26 -10 50 1 47 -4 59 -19 40z"/>
<path d="M2710 1105 c0 -8 5 -15 10 -15 6 0 10 7 10 15 0 8 -4 15 -10 15 -5 0
-10 -7 -10 -15z"/>
<path d="M2747 1085 c2 -22 -1 -35 -8 -35 -6 0 -8 7 -5 16 5 12 2 15 -10 10
-8 -3 -18 -6 -20 -6 -2 0 -4 -7 -4 -15 0 -11 11 -15 38 -15 36 0 37 1 37 37 0
27 -5 39 -16 41 -13 2 -16 -4 -12 -33z"/>
<path d="M2894 1106 c-3 -9 -3 -27 0 -41 5 -20 13 -25 36 -25 17 0 30 4 30 9
0 5 -7 8 -16 7 -9 0 -19 5 -21 12 -3 7 4 12 17 12 15 0 20 5 18 18 -4 23 -56
29 -64 8z m46 -6 c0 -5 -7 -10 -16 -10 -8 0 -12 5 -9 10 3 6 10 10 16 10 5 0
9 -4 9 -10z"/>
<path d="M3140 1101 c0 -11 9 -26 20 -34 11 -8 17 -17 13 -20 -3 -4 -1 -7 5
-7 22 0 25 24 4 41 -12 9 -22 22 -22 28 0 6 -4 11 -10 11 -5 0 -10 -9 -10 -19z"/>
<path d="M3175 1110 c3 -5 8 -10 11 -10 2 0 4 5 4 10 0 6 -5 10 -11 10 -5 0
-7 -4 -4 -10z"/>
<path d="M3210 1101 c0 -11 9 -26 20 -34 11 -8 17 -17 13 -20 -3 -4 -1 -7 5
-7 22 0 25 24 4 41 -12 9 -22 22 -22 28 0 6 -4 11 -10 11 -5 0 -10 -9 -10 -19z"/>
<path d="M3245 1110 c3 -5 8 -10 11 -10 2 0 4 5 4 10 0 6 -5 10 -11 10 -5 0
-7 -4 -4 -10z"/>
<path d="M3284 1106 c-8 -20 -1 -59 11 -63 6 -2 10 15 10 37 0 40 -11 53 -21
26z"/>
<path d="M3325 1080 c0 -43 5 -49 25 -25 10 12 10 21 2 40 -17 36 -27 31 -27
-15z"/>
<path d="M3374 1106 c-11 -30 1 -61 25 -64 13 -2 28 1 34 7 7 7 3 8 -11 4 -16
-4 -23 1 -27 20 -4 14 -4 31 0 36 3 6 1 11 -5 11 -6 0 -13 -6 -16 -14z"/>
<path d="M3412 1111 c2 -7 7 -12 11 -12 12 1 9 15 -3 20 -7 2 -11 -2 -8 -8z"/>
<path d="M3450 1080 c0 -29 4 -40 15 -40 11 0 15 11 15 40 0 29 -4 40 -15 40
-11 0 -15 -11 -15 -40z"/>
<path d="M3505 1110 c-4 -6 -4 -14 0 -18 3 -3 10 0 14 7 5 8 14 10 21 6 9 -6
5 -12 -14 -22 -40 -21 -34 -43 12 -43 l39 0 -6 38 c-5 31 -11 38 -33 40 -14 2
-29 -2 -33 -8z m45 -39 c0 -12 -20 -25 -27 -18 -7 7 6 27 18 27 5 0 9 -4 9 -9z"/>
<path d="M3650 1080 c0 -29 4 -40 15 -40 11 0 15 11 15 40 0 29 -4 40 -15 40
-11 0 -15 -11 -15 -40z"/>
<path d="M3704 1106 c-8 -21 -1 -59 12 -63 6 -2 8 10 6 32 -3 28 -1 35 13 35
14 0 16 -7 13 -35 -2 -22 0 -34 6 -32 6 2 11 19 11 38 0 30 -3 34 -28 37 -17
2 -29 -2 -33 -12z"/>
<path d="M3794 1081 c1 -52 26 -57 26 -6 0 19 5 35 10 35 6 0 10 -16 10 -35 0
-25 4 -35 16 -35 12 0 14 9 12 38 -3 35 -5 37 -39 40 -36 3 -36 3 -35 -37z"/>
<path d="M3140 1050 c0 -5 5 -10 11 -10 5 0 7 5 4 10 -3 6 -8 10 -11 10 -2 0
-4 -4 -4 -10z"/>
<path d="M3210 1050 c0 -5 5 -10 11 -10 5 0 7 5 4 10 -3 6 -8 10 -11 10 -2 0
-4 -4 -4 -10z"/>
<path d="M2620 550 c0 -5 5 -10 10 -10 6 0 10 -30 10 -71 0 -57 -4 -75 -17
-85 -16 -12 -14 -13 21 -14 38 0 38 1 22 19 -13 14 -16 32 -14 72 3 54 4 54
16 24 35 -85 46 -105 55 -102 5 1 19 26 31 54 30 73 36 74 36 12 0 -30 -5 -60
-12 -67 -9 -9 -3 -12 28 -12 l39 0 -3 75 c-5 93 0 110 28 95 17 -9 20 -21 20
-80 0 -40 -4 -70 -10 -70 -5 0 -10 -4 -10 -10 0 -6 31 -10 74 -10 68 0 74 2
80 23 10 38 7 41 -17 19 -13 -12 -35 -22 -50 -22 -24 0 -27 4 -27 35 0 40 12
45 34 13 15 -22 16 -21 16 27 0 48 -1 49 -16 27 -22 -32 -34 -27 -34 13 0 32
3 35 29 35 18 0 34 -8 44 -22 16 -23 16 -23 16 10 l1 32 -116 0 -115 0 -16
-37 c-8 -21 -20 -49 -25 -63 -9 -24 -11 -22 -38 38 -26 56 -32 62 -59 62 -17
0 -31 -4 -31 -10z"/>
<path d="M3040 550 c0 -5 5 -10 10 -10 15 0 13 -143 -2 -158 -9 -9 -4 -12 22
-12 26 0 31 3 22 12 -7 7 -12 37 -12 67 l1 56 33 -70 c32 -67 34 -69 44 -45 5
14 19 45 30 70 l21 45 0 -55 c1 -31 -4 -61 -11 -68 -9 -9 0 -11 36 -10 34 0
44 4 37 11 -6 6 -11 43 -11 83 0 71 8 87 38 77 16 -6 17 -144 0 -161 -17 -17
88 -16 122 1 30 15 37 48 15 70 -13 14 -14 20 -3 37 30 47 -26 73 -149 68
l-76 -3 -23 -60 -23 -60 -27 63 c-26 58 -29 62 -61 62 -18 0 -33 -4 -33 -10z
m349 -28 c7 -13 6 -23 -1 -30 -19 -19 -38 -14 -38 11 0 40 22 50 39 19z m7
-88 c8 -29 -7 -49 -30 -41 -10 4 -16 18 -16 37 0 40 36 43 46 4z"/>
<path d="M3474 543 c8 -28 10 -142 3 -150 -18 -17 -1 -23 67 -23 71 0 74 1 80
26 9 35 -1 43 -20 16 -10 -14 -26 -22 -45 -22 -27 0 -29 3 -29 35 0 40 12 45
34 13 15 -22 16 -21 15 27 0 48 -1 49 -16 28 -22 -33 -33 -28 -33 12 0 32 2
35 31 35 22 0 32 -5 36 -20 8 -30 25 -24 21 8 -3 26 -5 27 -76 30 -67 3 -73 1
-68 -15z"/>
<path d="M3640 551 c0 -6 5 -11 10 -11 6 0 10 -32 10 -75 0 -43 -4 -75 -10
-75 -5 0 -10 -4 -10 -10 0 -5 21 -10 46 -10 39 0 45 2 34 14 -6 8 -10 25 -8
38 3 21 5 20 26 -14 19 -30 30 -38 53 -38 36 0 36 6 0 48 -29 33 -29 34 -10
53 22 22 25 52 5 68 -20 16 -146 27 -146 12z m105 -46 c0 -20 -6 -31 -17 -33
-15 -3 -18 4 -18 33 0 29 3 36 18 33 11 -2 17 -13 17 -33z"/>
<path d="M2970 300 c0 -5 9 -10 20 -10 11 0 20 5 20 10 0 6 -9 10 -20 10 -11
0 -20 -4 -20 -10z"/>
<path d="M3125 303 c-14 -4 -6 -80 9 -86 8 -3 11 7 8 32 -5 54 -6 58 -17 54z"/>
<path d="M3192 288 c1 -13 6 -28 11 -35 12 -17 0 -33 -21 -26 -14 5 -15 3 -5
-7 10 -11 16 -10 33 5 11 10 16 23 12 29 -4 6 -7 20 -7 30 0 11 -5 21 -12 23
-7 3 -11 -5 -11 -19z"/>
<path d="M3256 265 c-8 -25 -11 -43 -7 -40 5 2 12 17 16 32 3 15 14 33 23 40
16 11 16 12 0 13 -10 0 -21 -16 -32 -45z"/>
<path d="M3314 260 c0 -32 4 -50 12 -50 8 0 10 14 6 46 -5 44 -4 46 18 39 15
-5 20 -4 16 4 -4 6 -17 11 -29 11 -20 0 -22 -5 -23 -50z"/>
<path d="M3045 260 c0 -22 6 -42 12 -44 8 -4 12 4 12 22 -3 67 -25 88 -24 22z"/>
<path d="M2960 273 c0 -8 51 -35 56 -30 2 1 0 7 -4 13 -9 14 -52 28 -52 17z"/>
<path d="M2965 220 c3 -5 14 -10 23 -10 15 0 15 2 2 10 -20 13 -33 13 -25 0z"/>
</g>
</svg>
