<?xml version="1.0" standalone="no"?>
<!DOCTYPE svg PUBLIC "-//W3C//DTD SVG 20010904//EN"
 "http://www.w3.org/TR/2001/REC-SVG-20010904/DTD/svg10.dtd">
<svg version="1.0" xmlns="http://www.w3.org/2000/svg"
 width="640.000000pt" height="294.000000pt" viewBox="0 0 640.000000 294.000000"
 preserveAspectRatio="xMidYMid meet">

<g transform="translate(0.000000,294.000000) scale(0.100000,-0.100000)"
fill="#000000" stroke="none">
<path d="M2775 2793 c-363 -25 -764 -143 -1077 -318 -239 -134 -405 -260 -603
-459 -379 -381 -623 -846 -719 -1370 -25 -134 -46 -340 -46 -447 l0 -59 363 0
362 0 120 132 c221 242 313 343 379 413 l65 70 47 -48 c25 -26 54 -47 64 -47
11 0 66 51 126 115 59 63 112 115 118 115 6 0 65 -59 131 -132 l120 -132 3
252 2 252 95 0 95 0 0 355 0 355 175 0 175 0 0 -850 0 -850 104 0 c60 0 108 4
111 10 3 6 3 19 0 30 -6 18 -15 20 -81 20 l-74 0 -2 848 -3 847 -232 3 -233 2
0 -355 0 -355 -95 0 -95 0 0 -207 0 -207 -93 98 c-74 79 -96 98 -112 92 -11
-3 -65 -55 -119 -116 -55 -60 -106 -110 -115 -110 -9 0 -33 18 -55 40 -48 49
-75 51 -111 8 -15 -18 -120 -134 -234 -258 -113 -123 -228 -248 -255 -277
l-48 -53 -319 0 -319 0 0 54 c0 30 5 100 10 157 77 772 486 1459 1125 1888
406 272 837 415 1330 439 116 6 130 9 133 26 2 10 -2 22 -10 27 -12 8 -98 9
-203 2z"/>
<path d="M3768 2767 c-143 -49 -251 -155 -298 -293 -54 -155 -27 -314 74 -448
35 -45 36 -49 36 -135 l0 -89 66 -52 c89 -70 98 -66 102 39 3 80 4 83 25 77
79 -23 188 -27 763 -24 617 3 619 3 683 26 74 27 98 41 168 99 49 41 54 43
115 43 69 0 83 9 136 87 38 55 32 63 -49 63 -70 0 -71 1 -64 23 17 52 17 200
0 264 -30 111 -119 224 -226 286 -96 56 -105 57 -814 57 l-650 -1 -67 -22z
m1405 -12 c171 -44 297 -173 337 -344 14 -58 9 -177 -9 -223 -10 -28 -11 -28
-110 -28 l-100 0 -3 224 c-2 123 -6 228 -11 232 -4 4 -34 10 -66 12 -49 4 -62
1 -79 -16 -18 -18 -21 -19 -36 -3 -13 13 -42 17 -136 19 l-120 4 -27 -29 c-16
-16 -33 -38 -40 -48 -11 -18 -12 -16 -12 17 -1 26 -7 40 -20 48 -24 13 -311
13 -344 1 -13 -5 -35 -27 -48 -48 l-24 -38 -3 35 c-5 53 -21 60 -148 60 -128
0 -144 -8 -144 -67 l0 -35 -35 31 c-65 57 -89 64 -232 69 -112 4 -137 2 -158
-12 l-25 -16 0 -287 c0 -277 -1 -286 -18 -269 -25 22 -68 110 -83 169 -6 27
-10 85 -7 135 3 72 10 99 35 155 57 122 179 222 308 253 36 9 220 13 675 13
524 1 635 -1 683 -14z m-55 -422 l-3 -168 -89 -3 c-49 -2 -93 1 -97 5 -9 9
170 332 184 333 4 0 6 -75 5 -167z m-1269 122 c46 -23 54 -66 20 -109 -17 -22
-28 -26 -70 -26 l-49 0 0 75 0 75 35 0 c20 0 49 -7 64 -15z m601 -192 c0 -115
3 -218 6 -230 6 -21 12 -23 79 -23 57 0 74 3 79 16 3 9 6 112 6 230 l0 214
140 0 c77 0 140 -3 140 -7 0 -3 -49 -90 -110 -193 -61 -103 -110 -197 -110
-211 0 -46 12 -49 196 -49 l172 0 26 31 c14 17 26 35 26 40 0 5 5 9 10 9 6 0
10 -13 10 -28 0 -47 14 -52 149 -52 l125 0 -30 -31 c-16 -17 -63 -47 -104 -67
l-75 -37 -660 -3 c-663 -3 -759 1 -771 32 -2 6 -3 83 -2 170 l3 159 43 -37
c65 -53 123 -46 200 27 l32 31 0 -101 c0 -147 -3 -144 180 -141 l145 3 32 55
c53 87 51 89 -74 92 l-108 3 -3 38 -3 37 68 0 c79 0 90 6 127 74 41 76 41 76
-84 76 l-110 0 0 40 0 40 125 0 125 0 0 -207z"/>
<path d="M5357 2352 c-21 -23 -21 -41 -1 -70 29 -42 104 -18 104 35 0 20 -28
53 -46 53 -4 0 2 -7 14 -16 12 -8 22 -26 22 -38 0 -54 -77 -64 -95 -12 -8 24
-6 31 14 47 13 10 19 19 14 19 -6 0 -17 -8 -26 -18z"/>
<path d="M5380 2318 c0 -26 3 -30 11 -18 8 11 12 12 16 3 9 -23 22 -13 20 15
-2 20 -8 28 -25 30 -19 3 -22 -1 -22 -30z m30 12 c0 -5 -4 -10 -10 -10 -5 0
-10 5 -10 10 0 6 5 10 10 10 6 0 10 -4 10 -10z"/>
<path d="M4400 1185 l0 -255 30 0 30 0 0 108 c0 59 5 124 10 144 21 74 106
103 155 53 24 -23 25 -29 25 -165 l0 -140 30 0 30 0 0 144 c0 80 -4 156 -10
170 -16 44 -66 68 -132 63 -35 -2 -64 -10 -76 -20 -10 -9 -22 -17 -25 -17 -4
0 -7 38 -7 85 l0 85 -30 0 -30 0 0 -255z"/>
<path d="M5160 1395 c0 -41 2 -45 25 -45 23 0 25 4 25 45 0 41 -2 45 -25 45
-23 0 -25 -4 -25 -45z"/>
<path d="M6010 1185 l0 -255 30 0 30 0 0 255 0 255 -30 0 -30 0 0 -255z"/>
<path d="M3500 1355 c0 -54 0 -55 -30 -55 -25 0 -30 -4 -30 -25 0 -21 5 -25
30 -25 l30 0 0 -143 c0 -169 3 -177 78 -185 l52 -5 0 32 c0 20 -4 30 -11 26
-5 -4 -21 -4 -35 -1 -24 6 -24 7 -24 141 l0 135 35 0 c31 0 35 3 35 25 0 22
-4 25 -35 25 l-35 0 0 55 c0 54 0 55 -30 55 -30 0 -30 -1 -30 -55z"/>
<path d="M3755 1295 c-117 -60 -125 -287 -13 -355 40 -24 135 -27 178 -5 28
15 62 61 75 103 6 19 3 22 -25 22 -24 0 -33 -6 -40 -26 -6 -14 -20 -34 -33
-45 -27 -22 -94 -25 -123 -4 -21 14 -54 72 -54 94 0 7 48 11 138 13 l137 3 -2
45 c-3 60 -28 112 -66 141 -40 29 -128 37 -172 14z m126 -51 c27 -14 67 -79
56 -90 -2 -3 -52 -3 -111 -2 l-106 3 20 41 c31 62 82 79 141 48z"/>
<path d="M4120 1292 c-86 -47 -118 -171 -72 -282 23 -56 81 -90 154 -90 69 0
113 27 138 83 26 57 25 67 -9 67 -23 0 -30 -6 -35 -26 -19 -74 -112 -100 -166
-46 -92 92 -40 262 80 262 33 0 80 -37 80 -63 0 -16 21 -27 51 -27 22 0 20 16
-5 69 -30 64 -145 92 -216 53z"/>
<path d="M4873 1289 c-28 -18 -33 -19 -33 -5 0 11 -9 16 -30 16 l-30 0 0 -185
0 -185 29 0 29 0 4 136 3 136 33 29 c20 18 43 29 61 29 77 0 91 -30 91 -200
l0 -130 31 0 31 0 -4 155 -3 155 -32 32 c-27 27 -41 32 -90 35 -47 3 -64 0
-90 -18z"/>
<path d="M5353 1285 c-55 -33 -83 -91 -83 -171 1 -119 57 -186 165 -192 88 -5
145 36 161 116 6 31 5 32 -25 32 -25 0 -31 -4 -31 -21 0 -32 -53 -79 -90 -79
-80 0 -125 62 -118 163 4 54 8 63 41 93 27 25 46 34 71 34 40 0 81 -30 90 -65
5 -20 13 -25 36 -25 37 0 39 17 9 70 -40 71 -146 93 -226 45z"/>
<path d="M5712 1293 c-32 -15 -52 -43 -66 -90 -7 -20 -4 -23 22 -23 24 0 32 6
41 30 17 51 97 67 145 29 48 -38 26 -89 -38 -89 -105 0 -186 -49 -186 -114 0
-80 42 -116 134 -116 44 0 60 5 84 25 34 29 42 31 42 11 0 -17 22 -26 61 -26
24 0 29 4 29 25 0 18 -5 25 -20 25 -19 0 -20 7 -20 115 0 139 -13 179 -64 200
-46 20 -123 19 -164 -2z m165 -225 c-8 -57 -52 -98 -105 -98 -50 0 -82 23 -82
60 0 37 28 57 100 69 96 16 93 17 87 -31z"/>
<path d="M5160 1115 l0 -185 25 0 25 0 0 185 0 185 -25 0 -25 0 0 -185z"/>
<path d="M3472 618 c3 -39 6 -43 31 -46 26 -3 27 -2 27 42 0 45 -1 46 -31 46
-29 0 -30 -1 -27 -42z"/>
<path d="M4520 615 c0 -43 1 -45 30 -45 29 0 30 2 30 45 0 43 -1 45 -30 45
-29 0 -30 -2 -30 -45z"/>
<path d="M4340 575 c0 -54 0 -55 -30 -55 -25 0 -30 -4 -30 -25 0 -21 5 -25 30
-25 l30 0 0 -132 c0 -73 3 -143 6 -154 7 -26 43 -44 89 -44 32 0 35 2 35 31 0
16 -4 28 -10 24 -5 -3 -21 -3 -35 1 l-25 6 0 134 0 134 35 0 c31 0 35 3 35 25
0 22 -4 25 -35 25 l-35 0 0 55 c0 54 0 55 -30 55 -30 0 -30 -1 -30 -55z"/>
<path d="M4680 575 l0 -55 -35 0 c-31 0 -35 -3 -35 -25 0 -22 4 -25 35 -25
l35 0 0 -149 c0 -170 2 -174 78 -175 41 -1 47 2 50 22 3 18 -1 22 -22 22 -49
0 -56 20 -56 156 l0 124 40 0 c36 0 40 3 40 24 0 21 -5 25 -37 28 l-38 3 -3
53 c-3 48 -5 52 -28 52 -23 0 -24 -3 -24 -55z"/>
<path d="M5260 575 c0 -54 0 -55 -30 -55 -25 0 -30 -4 -30 -25 0 -21 5 -25 30
-25 l30 0 0 -143 c0 -169 3 -177 78 -185 l52 -5 0 32 c0 20 -4 30 -11 26 -5
-4 -21 -4 -35 -1 -24 6 -24 7 -24 141 l0 135 35 0 c31 0 35 3 35 25 0 22 -4
25 -35 25 l-35 0 0 55 c0 54 0 55 -30 55 -30 0 -30 -1 -30 -55z"/>
<path d="M3691 504 c-30 -25 -31 -25 -31 -5 0 17 -6 21 -30 21 l-30 0 0 -185
0 -185 29 0 29 0 4 135 c3 130 4 136 29 161 36 35 96 43 129 16 24 -20 25 -25
28 -166 l3 -146 31 0 30 0 -4 153 c-2 127 -6 156 -21 179 -37 54 -144 66 -196
22z"/>
<path d="M4034 516 c-101 -44 -78 -167 37 -195 92 -23 122 -36 130 -59 7 -18
3 -28 -16 -48 -47 -47 -158 -22 -167 39 -2 16 -11 23 -32 25 -28 4 -29 3 -23
-35 4 -26 18 -48 43 -72 35 -32 37 -33 114 -29 71 3 82 6 109 32 25 24 31 38
31 74 0 62 -34 93 -125 116 -74 18 -105 38 -105 66 0 25 23 41 67 47 44 6 93
-25 93 -58 0 -14 7 -19 30 -19 35 0 40 22 15 69 -28 54 -129 78 -201 47z"/>
<path d="M5514 513 c-87 -43 -122 -206 -64 -301 31 -50 75 -72 146 -72 80 0
121 26 146 93 l18 47 -30 0 c-20 0 -33 -6 -37 -17 -3 -10 -17 -30 -31 -45 -20
-22 -35 -28 -67 -28 -22 0 -51 7 -64 16 -21 15 -51 70 -51 94 0 6 49 10 134
10 79 0 137 4 141 10 12 19 -7 100 -33 140 -15 22 -41 47 -58 55 -41 19 -110
18 -150 -2z m121 -45 c22 -10 65 -72 65 -93 0 -3 -49 -5 -110 -5 -60 0 -110 3
-110 6 0 4 10 23 21 44 32 56 79 73 134 48z"/>
<path d="M3470 335 l0 -185 30 0 30 0 0 185 0 185 -30 0 -30 0 0 -185z"/>
<path d="M4520 335 l0 -185 30 0 30 0 0 185 0 185 -30 0 -30 0 0 -185z"/>
<path d="M4860 364 l0 -156 34 -34 c31 -31 39 -34 94 -34 44 0 66 5 85 20 30
24 37 25 37 5 0 -9 9 -15 25 -15 l25 0 0 185 0 185 -25 0 -25 0 0 -102 c0
-164 -30 -228 -105 -228 -80 0 -95 34 -95 213 l0 117 -25 0 -25 0 0 -156z"/>
</g>
</svg>
